<svg xmlns="http://www.w3.org/2000/svg" viewBox="0 0 33.3 33.26">
    <g id="图层_2" data-name="图层 2">
        <g id="图层_1-2" data-name="图层 1">
            <path class="cls-1"
                  d="M15.78,0a16,16,0,0,1-5.31,11.92c-.31.28-.63.55-1,.8a15.85,15.85,0,0,1-6.4,3c-.27.06-.55.12-.83.16a15,15,0,0,1-2.24.2v-12A4.11,4.11,0,0,1,4.15,0Z"/>
            <path class="cls-1"
                  d="M33.3,4.11v12c-.22,0-.43,0-.65,0a15.64,15.64,0,0,1-2.57-.21c-.28,0-.56-.1-.84-.16a15.85,15.85,0,0,1-6.4-3c-.33-.25-.65-.52-1-.8A16,16,0,0,1,16.58,0H29.19A4.11,4.11,0,0,1,33.3,4.11Z"/>
            <path class="cls-1" d="M5,20.52l7.36,12.74H4.15A4.11,4.11,0,0,1,0,29.15V20.52Z"/>
            <polygon class="cls-1" points="5.88 20.52 26.47 20.52 19.12 33.26 13.24 33.26 5.88 20.52"/>
            <path class="cls-1" d="M27.4,20.52h5.9v8.63a4.11,4.11,0,0,1-4.11,4.11H20Z"/>
            <path class="cls-2" d="M0,11.92,0,12v-.07Z"/>
        </g>
    </g>
</svg>